<svg width="207" height="32" viewBox="0 0 207 32" fill="none" xmlns="http://www.w3.org/2000/svg">
<g clip-path="url(#clip0_1_2)">
<path d="M34.5158 31.8723H29.6197C29.6197 29.9788 28.434 28.1583 26.2778 26.7537C23.9283 25.2214 20.7688 24.375 17.3795 24.375C13.9902 24.375 10.8307 25.2214 8.48114 26.7537C6.32496 28.1583 5.13559 29.9752 5.13559 31.8723H0.239502C0.239502 30.2233 0.732029 28.6289 1.69884 27.1331C2.60364 25.7394 3.88421 24.499 5.50408 23.441C8.70369 21.3541 12.9212 20.2049 17.3795 20.2049C21.8378 20.2049 26.0553 21.3541 29.2549 23.441C30.8747 24.499 32.1517 25.7394 33.0565 27.1331C34.0269 28.6289 34.5158 30.2233 34.5158 31.8723Z" fill="#1AABE7"/>
<path d="M6.2374 26.5384C5.50773 28.2239 5.13924 30.0189 5.13924 31.8723H0.239502C0.239502 31.8103 0.24315 31.7482 0.24315 31.6862C0.279633 30.1028 0.768513 28.5705 1.69884 27.1331C2.60364 25.7394 3.88421 24.499 5.50408 23.4409C6.95612 22.4924 8.62342 21.7372 10.4257 21.1972C9.99156 21.5292 9.57199 21.8867 9.18162 22.2698C7.92659 23.4957 6.93788 24.9295 6.2374 26.5384ZM34.5158 31.6862C34.4793 30.1028 33.9904 28.5705 33.0565 27.1331C32.1553 25.7394 30.8747 24.499 29.2549 23.4409C27.8028 22.4924 26.1355 21.7372 24.3332 21.1972C24.7674 21.5292 25.187 21.8867 25.5773 22.2698C26.8324 23.4957 27.8247 24.9295 28.5179 26.5384C29.2512 28.2239 29.6197 30.0189 29.6197 31.8723H34.5158C34.5158 31.8103 34.5158 31.7482 34.5158 31.6862Z" fill="#3A85E9"/>
<path d="M34.5158 31.8723H29.6197C29.6197 28.1145 29.2512 24.4698 28.5179 21.0476C27.8247 17.786 26.8324 14.8709 25.5773 12.3828C24.3953 10.0405 22.9906 8.15066 21.5167 6.91387C20.1595 5.77923 18.7695 5.20279 17.3795 5.20279C15.9931 5.20279 14.5994 5.77923 13.2422 6.91387C11.7683 8.15066 10.3637 10.0405 9.18162 12.3828C7.92659 14.8709 6.93788 17.786 6.24105 21.0476C5.50773 24.4734 5.13924 28.1145 5.13924 31.8723H0.239502C0.239502 23.7328 1.85937 16.0384 4.80359 10.2156C6.29942 7.24587 8.07617 4.89268 10.0791 3.21444C11.1627 2.306 12.3119 1.60186 13.4903 1.12393C14.7563 0.613159 16.0624 0.354126 17.3795 0.354126C18.6965 0.354126 20.0026 0.613159 21.2686 1.12393C22.447 1.60186 23.5963 2.306 24.6798 3.21444C26.6828 4.89268 28.4595 7.24587 29.9554 10.2156C32.8959 16.0384 34.5158 23.7328 34.5158 31.8723Z" fill="#1AABE7"/>
<path d="M49.123 22.6574C49.6192 22.6574 50.0607 22.6501 50.451 22.6282C50.8378 22.61 51.1588 22.5662 51.4142 22.4969V18.9799C51.2683 18.9033 51.0202 18.8412 50.6699 18.7902C50.327 18.7318 49.9147 18.7026 49.4295 18.7026C49.1157 18.7026 48.7801 18.7281 48.4226 18.7756C48.0614 18.8157 47.7294 18.9069 47.4302 19.0528C47.1383 19.1988 46.8939 19.3994 46.7005 19.6512C46.5035 19.8956 46.4087 20.2203 46.4087 20.6289C46.4087 21.3987 46.6495 21.9277 47.1383 22.2196C47.6236 22.5115 48.2839 22.6574 49.123 22.6574ZM48.9333 12.048C49.787 12.048 50.5094 12.1611 51.0931 12.3837C51.6769 12.5989 52.1439 12.909 52.4941 13.3176C52.8517 13.719 53.107 14.1932 53.253 14.7478C53.4062 15.3023 53.4865 15.9153 53.4865 16.5866V23.9854C53.3113 24.0146 53.056 24.0584 52.7276 24.1168C52.3956 24.1678 52.0271 24.208 51.6185 24.2481C51.2099 24.2955 50.7648 24.3393 50.2905 24.3794C49.8126 24.4159 49.3346 24.4378 48.8604 24.4378C48.1964 24.4378 47.5834 24.3685 47.0216 24.2335C46.4561 24.0985 45.9709 23.8833 45.5622 23.5914C45.1536 23.2922 44.8326 22.8982 44.5991 22.4093C44.3729 21.9241 44.2634 21.3404 44.2634 20.6581C44.2634 20.0087 44.3948 19.4469 44.6575 18.9799C44.9274 18.5056 45.2886 18.1262 45.7374 17.8416C46.1934 17.5497 46.7224 17.3381 47.328 17.1995C47.941 17.0645 48.5831 16.9952 49.2544 16.9952C49.466 16.9952 49.6849 17.0061 49.9111 17.0244C50.1446 17.0462 50.3635 17.0754 50.5678 17.1119C50.7721 17.1521 50.9472 17.1849 51.0931 17.2141C51.2464 17.2433 51.3558 17.2688 51.4142 17.287V16.6887C51.4142 16.3494 51.3741 16.0101 51.2975 15.6672C51.2281 15.3169 51.0931 15.0105 50.8888 14.7478C50.6918 14.4851 50.4255 14.2771 50.0862 14.1203C49.7433 13.9561 49.3018 13.8722 48.7582 13.8722C48.0577 13.8722 47.4448 13.9233 46.9194 14.0181C46.3941 14.1166 46.0037 14.2188 45.752 14.3246L45.4893 12.5734C45.7702 12.4493 46.2262 12.3326 46.8611 12.2231C47.5032 12.1064 48.1927 12.048 48.9333 12.048Z" fill="#1AABE7"/>
<path d="M60.911 24.4232C59.6049 24.3831 58.6819 24.1022 58.1383 23.5768C57.591 23.0442 57.321 22.216 57.321 21.0959V6.88196L59.4371 6.51712V20.7457C59.4371 21.0959 59.4663 21.3878 59.5247 21.6213C59.583 21.8475 59.6779 22.0263 59.8165 22.1613C59.9625 22.2999 60.1449 22.4021 60.3711 22.4677C60.5936 22.537 60.8745 22.5954 61.2175 22.6428L60.911 24.4232Z" fill="#1AABE7"/>
<path d="M72.1638 18.294C72.1638 16.9149 71.8209 15.8532 71.1423 15.1126C70.4601 14.3647 69.5516 13.9889 68.4133 13.9889C67.7712 13.9889 67.2678 14.0145 66.9102 14.0619C66.56 14.102 66.2754 14.1495 66.0638 14.2078V21.6797C66.3265 21.8949 66.695 22.1029 67.1729 22.3072C67.6581 22.5042 68.1944 22.599 68.7782 22.599C69.3802 22.599 69.8946 22.4896 70.3251 22.2634C70.7629 22.0408 71.1168 21.738 71.3904 21.3586C71.6604 20.9719 71.8574 20.5122 71.9741 19.9868C72.0982 19.4615 72.1638 18.8996 72.1638 18.294ZM74.382 18.294C74.382 19.1915 74.258 20.016 74.0172 20.7749C73.7837 21.5337 73.4371 22.1868 72.9811 22.7304C72.5323 23.2776 71.9778 23.7045 71.3174 24.0146C70.6534 24.3138 69.9019 24.467 69.0555 24.467C68.3623 24.467 67.7566 24.3721 67.2313 24.1897C66.7132 24.0073 66.3265 23.8322 66.0638 23.6644V28.4072H63.9478V12.7047C64.4439 12.588 65.0642 12.4566 65.8157 12.3107C66.5746 12.1647 67.4429 12.0918 68.4279 12.0918C69.34 12.0918 70.1646 12.2377 70.8942 12.5296C71.6239 12.8142 72.2441 13.2228 72.7622 13.7554C73.2766 14.2917 73.6743 14.9448 73.9588 15.711C74.2398 16.4698 74.382 17.3308 74.382 18.294Z" fill="#1AABE7"/>
<path d="M77.729 24.1898V6.88196L79.845 6.51712V12.5734C80.2427 12.4202 80.6659 12.3034 81.1147 12.2231C81.5598 12.1356 82.0049 12.0918 82.4427 12.0918C83.384 12.0918 84.1684 12.2304 84.7922 12.5004C85.4124 12.7631 85.9086 13.1352 86.2807 13.6095C86.6492 14.0875 86.9119 14.6602 87.0688 15.3315C87.222 15.9955 87.3023 16.7289 87.3023 17.5352V24.1898H85.1716V17.9876C85.1716 17.2579 85.1206 16.6377 85.0257 16.1196C84.9272 15.6052 84.763 15.1929 84.5295 14.8792C84.3033 14.5581 84.0042 14.3246 83.6247 14.1787C83.2453 14.0327 82.771 13.9598 82.2092 13.9598C81.983 13.9598 81.7495 13.9744 81.5087 14.0035C81.2643 14.0327 81.0308 14.0692 80.8082 14.1057C80.593 14.1458 80.3996 14.1896 80.2245 14.237C80.0494 14.2881 79.9217 14.3246 79.845 14.3538V24.1898H77.729Z" fill="#1AABE7"/>
<path d="M95.113 22.6574C95.6092 22.6574 96.0507 22.6501 96.441 22.6282C96.8278 22.61 97.1488 22.5662 97.4042 22.4969V18.9799C97.2583 18.9033 97.0102 18.8412 96.6599 18.7902C96.317 18.7318 95.9047 18.7026 95.4195 18.7026C95.1057 18.7026 94.7701 18.7281 94.4125 18.7756C94.0514 18.8157 93.7194 18.9069 93.4202 19.0528C93.1283 19.1988 92.8839 19.3994 92.6905 19.6512C92.4935 19.8956 92.3987 20.2203 92.3987 20.6289C92.3987 21.3987 92.6394 21.9277 93.1283 22.2196C93.6136 22.5115 94.2739 22.6574 95.113 22.6574ZM94.9233 12.048C95.777 12.048 96.4994 12.1611 97.0831 12.3837C97.6669 12.5989 98.1339 12.909 98.4841 13.3176C98.8416 13.719 99.097 14.1932 99.243 14.7478C99.3962 15.3023 99.4765 15.9153 99.4765 16.5866V23.9854C99.3013 24.0146 99.046 24.0584 98.7176 24.1168C98.3856 24.1678 98.0171 24.208 97.6085 24.2481C97.1999 24.2955 96.7548 24.3393 96.2805 24.3794C95.8026 24.4159 95.3246 24.4378 94.8503 24.4378C94.1863 24.4378 93.5734 24.3685 93.0116 24.2335C92.4461 24.0985 91.9608 23.8833 91.5522 23.5914C91.1436 23.2922 90.8226 22.8982 90.5891 22.4093C90.3629 21.9241 90.2534 21.3404 90.2534 20.6581C90.2534 20.0087 90.3848 19.4469 90.6474 18.9799C90.9174 18.5056 91.2786 18.1262 91.7274 17.8416C92.1834 17.5497 92.7124 17.3381 93.318 17.1995C93.931 17.0645 94.5731 16.9952 95.2444 16.9952C95.456 16.9952 95.6749 17.0061 95.9011 17.0244C96.1346 17.0462 96.3535 17.0754 96.5578 17.1119C96.7621 17.1521 96.9372 17.1849 97.0831 17.2141C97.2364 17.2433 97.3458 17.2688 97.4042 17.287V16.6887C97.4042 16.3494 97.3641 16.0101 97.2874 15.6672C97.2181 15.3169 97.0831 15.0105 96.8788 14.7478C96.6818 14.4851 96.4155 14.2771 96.0762 14.1203C95.7332 13.9561 95.2918 13.8722 94.7482 13.8722C94.0477 13.8722 93.4348 13.9233 92.9094 14.0181C92.3841 14.1166 91.9937 14.2188 91.7419 14.3246L91.4793 12.5734C91.7602 12.4493 92.2162 12.3326 92.851 12.2231C93.4932 12.1064 94.1827 12.048 94.9233 12.048Z" fill="#1AABE7"/>
<path d="M103.347 12.6901C103.832 12.5661 104.474 12.4347 105.273 12.2961C106.079 12.1611 107.01 12.0918 108.06 12.0918C109.002 12.0918 109.786 12.2304 110.41 12.5004C111.03 12.7631 111.526 13.1352 111.898 13.6095C112.267 14.0874 112.53 14.6602 112.686 15.3315C112.84 15.9955 112.92 16.7288 112.92 17.5351V24.1897H110.789V17.9875C110.789 17.2579 110.738 16.6376 110.643 16.1196C110.545 15.6051 110.381 15.1929 110.147 14.8791C109.921 14.5581 109.622 14.3246 109.242 14.1786C108.863 14.0327 108.389 13.9597 107.827 13.9597C107.601 13.9597 107.367 13.9707 107.126 13.9889C106.882 13.9999 106.648 14.0181 106.426 14.0473C106.211 14.0692 106.017 14.0911 105.842 14.1203C105.667 14.1495 105.539 14.175 105.463 14.1932V24.1897H103.347V12.6901Z" fill="black"/>
<path d="M127.235 18.2648C127.235 19.2097 127.096 20.0598 126.826 20.8187C126.553 21.5775 126.17 22.2306 125.673 22.7742C125.185 23.3214 124.597 23.7446 123.908 24.0438C123.225 24.3357 122.481 24.4816 121.675 24.4816C120.876 24.4816 120.132 24.3357 119.442 24.0438C118.76 23.7446 118.172 23.3214 117.676 22.7742C117.187 22.2306 116.808 21.5775 116.538 20.8187C116.264 20.0598 116.129 19.2097 116.129 18.2648C116.129 17.3418 116.264 16.4953 116.538 15.7255C116.808 14.9594 117.187 14.3027 117.676 13.7554C118.172 13.2118 118.76 12.7923 119.442 12.5004C120.132 12.2012 120.876 12.048 121.675 12.048C122.481 12.048 123.225 12.2012 123.908 12.5004C124.597 12.7923 125.185 13.2118 125.673 13.7554C126.17 14.3027 126.553 14.9594 126.826 15.7255C127.096 16.4953 127.235 17.3418 127.235 18.2648ZM125.031 18.2648C125.031 16.9332 124.729 15.8788 124.127 15.098C123.532 14.31 122.715 13.916 121.675 13.916C120.642 13.916 119.825 14.31 119.223 15.098C118.629 15.8788 118.333 16.9332 118.333 18.2648C118.333 19.6074 118.629 20.6691 119.223 21.4462C119.825 22.2269 120.642 22.6136 121.675 22.6136C122.715 22.6136 123.532 22.2269 124.127 21.4462C124.729 20.6691 125.031 19.6074 125.031 18.2648Z" fill="black"/>
<path d="M130.59 12.6901C131.075 12.5661 131.717 12.4347 132.516 12.2961C133.312 12.1611 134.231 12.0918 135.274 12.0918C136.033 12.0918 136.668 12.1939 137.186 12.3982C137.711 12.6026 138.149 12.9054 138.499 13.303C138.594 13.2264 138.755 13.1206 138.981 12.982C139.215 12.847 139.495 12.7157 139.827 12.588C140.167 12.453 140.543 12.3362 140.951 12.2377C141.36 12.1429 141.801 12.0918 142.279 12.0918C143.184 12.0918 143.921 12.2304 144.497 12.5004C145.081 12.7631 145.534 13.1389 145.855 13.6241C146.183 14.113 146.409 14.6894 146.526 15.3607C146.643 16.0247 146.701 16.7471 146.701 17.5351V24.1897H144.57V17.9875C144.57 17.298 144.534 16.7033 144.468 16.2071C144.399 15.7037 144.268 15.2841 144.074 14.9521C143.888 14.6128 143.629 14.3647 143.301 14.2078C142.98 14.0437 142.56 13.9597 142.046 13.9597C141.334 13.9597 140.747 14.0582 140.28 14.2516C139.813 14.4377 139.495 14.6091 139.331 14.7624C139.455 15.1528 139.55 15.5869 139.609 16.0612C139.667 16.5282 139.696 17.0207 139.696 17.5351V24.1897H137.58V17.9875C137.58 17.298 137.54 16.7033 137.463 16.2071C137.383 15.7037 137.248 15.2841 137.055 14.9521C136.869 14.6128 136.61 14.3647 136.281 14.2078C135.96 14.0437 135.552 13.9597 135.055 13.9597C134.84 13.9597 134.61 13.9707 134.37 13.9889C134.125 13.9999 133.892 14.0181 133.669 14.0473C133.454 14.0692 133.253 14.0911 133.071 14.1203C132.885 14.1495 132.764 14.175 132.706 14.1932V24.1897H130.59V12.6901Z" fill="black"/>
<path d="M152.683 24.1897H150.567V12.3399H152.683V24.1897ZM151.618 10.2092C151.238 10.2092 150.91 10.0852 150.64 9.82981C150.377 9.57808 150.246 9.23878 150.246 8.80827C150.246 8.39236 150.377 8.05671 150.64 7.80133C150.91 7.54959 151.238 7.4219 151.618 7.4219C151.997 7.4219 152.318 7.54959 152.581 7.80133C152.843 8.05671 152.975 8.39236 152.975 8.80827C152.975 9.23878 152.843 9.57808 152.581 9.82981C152.318 10.0852 151.997 10.2092 151.618 10.2092Z" fill="black"/>
<path d="M161.846 24.467C160.883 24.467 160.04 24.3138 159.321 24.0146C158.599 23.7045 157.993 23.2776 157.497 22.7304C157.008 22.1868 156.643 21.541 156.402 20.7895C156.158 20.0306 156.038 19.1988 156.038 18.294C156.038 17.3819 156.169 16.5428 156.432 15.7839C156.694 15.0251 157.066 14.3684 157.555 13.8138C158.041 13.2593 158.635 12.8288 159.336 12.515C160.043 12.2049 160.832 12.048 161.7 12.048C162.233 12.048 162.765 12.0991 163.291 12.1939C163.823 12.2815 164.334 12.4238 164.823 12.6171L164.341 14.4121C164.027 14.2662 163.663 14.1495 163.247 14.0619C162.827 13.967 162.378 13.916 161.904 13.916C160.726 13.916 159.821 14.2917 159.19 15.0397C158.555 15.7803 158.241 16.8638 158.241 18.294C158.241 18.9288 158.314 19.5125 158.46 20.0452C158.606 20.5815 158.832 21.0376 159.146 21.417C159.456 21.7964 159.854 22.0883 160.343 22.2926C160.828 22.4969 161.415 22.599 162.108 22.599C162.67 22.599 163.181 22.548 163.641 22.4385C164.097 22.3327 164.451 22.216 164.706 22.0883L165.013 23.8687C164.885 23.9489 164.706 24.0219 164.473 24.0876C164.246 24.1569 163.991 24.2116 163.699 24.2627C163.415 24.3211 163.108 24.3685 162.78 24.4086C162.459 24.4451 162.145 24.467 161.846 24.467Z" fill="black"/>
<path d="M170.409 22.6574C171.274 22.6574 171.916 22.548 172.335 22.3218C172.751 22.0992 172.963 21.7344 172.963 21.2273C172.963 20.7128 172.751 20.3042 172.335 20.0014C171.927 19.7023 171.255 19.3593 170.321 18.9799C169.862 18.7975 169.424 18.6114 169.008 18.4253C168.588 18.232 168.224 18.0094 167.914 17.754C167.611 17.4914 167.366 17.1812 167.184 16.8201C167.009 16.4516 166.921 15.9992 166.921 15.4629C166.921 14.4121 167.304 13.5803 168.074 12.9674C168.851 12.3545 169.913 12.048 171.255 12.048C171.584 12.048 171.916 12.0699 172.248 12.1064C172.587 12.1465 172.897 12.1939 173.182 12.2523C173.474 12.3034 173.725 12.3545 173.941 12.4128C174.163 12.4712 174.338 12.5259 174.466 12.5734L174.072 14.3975C173.846 14.2735 173.492 14.1458 173.007 14.0181C172.518 13.8941 171.934 13.8284 171.255 13.8284C170.661 13.8284 170.139 13.9451 169.694 14.1786C169.256 14.4121 169.037 14.7843 169.037 15.2877C169.037 15.5431 169.085 15.7693 169.183 15.9736C169.278 16.1706 169.431 16.3494 169.636 16.5136C169.847 16.6705 170.106 16.8164 170.409 16.9514C170.708 17.09 171.073 17.2287 171.503 17.3746C172.058 17.5899 172.554 17.7978 172.992 18.0021C173.437 18.2064 173.817 18.4472 174.13 18.7172C174.44 18.9908 174.678 19.3228 174.845 19.7096C175.01 20.0999 175.093 20.5779 175.093 21.1397C175.093 22.2306 174.685 23.0587 173.868 23.6206C173.058 24.1861 171.905 24.467 170.409 24.467C169.358 24.467 168.534 24.3794 167.943 24.2043C167.348 24.0292 166.943 23.8942 166.731 23.7957L167.125 21.9861C167.366 22.0737 167.753 22.2123 168.278 22.3947C168.811 22.5699 169.522 22.6574 170.409 22.6574Z" fill="black"/>
<path d="M182.259 18.7289C182.259 19.5571 182.376 20.3269 182.61 21.0346C182.85 21.7351 183.208 22.3845 183.675 22.9902L183.033 23.428C182.526 22.815 182.117 22.1073 181.807 21.3119C181.504 20.5166 181.354 19.6556 181.354 18.7289C181.354 17.8168 181.504 16.9594 181.807 16.1604C182.117 15.3542 182.526 14.6427 183.033 14.0298L183.675 14.4676C183.208 15.0732 182.85 15.7299 182.61 16.4377C182.376 17.1382 182.259 17.9044 182.259 18.7289Z" fill="#1AABE7"/>
<path d="M185.571 16.8026C185.677 16.7369 185.841 16.664 186.067 16.5837C186.29 16.5071 186.549 16.467 186.841 16.467C187.198 16.467 187.519 16.5363 187.804 16.6713C188.085 16.799 188.322 16.9777 188.519 17.2112C188.712 17.4447 188.858 17.722 188.957 18.0431C189.063 18.3641 189.117 18.7216 189.117 19.1084C189.117 19.517 189.052 19.8891 188.928 20.2175C188.811 20.5385 188.639 20.8158 188.417 21.0493C188.202 21.2755 187.939 21.4506 187.629 21.5747C187.315 21.6914 186.965 21.7498 186.578 21.7498C186.158 21.7498 185.783 21.7206 185.454 21.6622C185.133 21.6038 184.871 21.5455 184.666 21.4871V14.2634L185.571 14.1028V16.8026ZM185.571 20.845C185.659 20.8742 185.783 20.8997 185.95 20.918C186.115 20.9398 186.323 20.9471 186.578 20.9471C187.052 20.9471 187.439 20.7939 187.731 20.4802C188.023 20.1591 188.169 19.7031 188.169 19.1084C188.169 18.8566 188.143 18.6195 188.096 18.3933C188.045 18.1598 187.964 17.9628 187.848 17.795C187.731 17.6308 187.578 17.5031 187.395 17.4155C187.209 17.3207 186.987 17.2696 186.724 17.2696C186.479 17.2696 186.25 17.3134 186.038 17.4009C185.834 17.4812 185.677 17.5615 185.571 17.649V20.845Z" fill="#1AABE7"/>
<path d="M190.256 19.123C190.256 18.6779 190.318 18.2875 190.446 17.9555C190.581 17.6162 190.752 17.3389 190.956 17.1237C191.168 16.9011 191.416 16.7369 191.701 16.6275C191.982 16.5217 192.27 16.467 192.562 16.467C193.233 16.467 193.747 16.6822 194.109 17.1091C194.477 17.5286 194.663 18.1707 194.663 19.0354C194.663 19.0755 194.663 19.123 194.663 19.1813C194.663 19.2397 194.656 19.2981 194.648 19.3565H191.19C191.226 19.8818 191.38 20.2831 191.642 20.5531C191.912 20.8158 192.332 20.9471 192.897 20.9471C193.207 20.9471 193.47 20.9252 193.685 20.8742C193.908 20.8158 194.072 20.7647 194.181 20.7136L194.313 21.4725C194.203 21.5309 194.01 21.5892 193.729 21.6476C193.455 21.7133 193.145 21.7498 192.795 21.7498C192.357 21.7498 191.978 21.6841 191.657 21.5601C191.336 21.4251 191.073 21.239 190.869 21.0055C190.664 20.772 190.508 20.4947 190.402 20.1737C190.303 19.8526 190.256 19.5024 190.256 19.123ZM193.715 18.6268C193.722 18.2182 193.62 17.8825 193.408 17.6198C193.204 17.3572 192.916 17.2258 192.547 17.2258C192.343 17.2258 192.157 17.2696 191.992 17.3572C191.836 17.4374 191.701 17.5396 191.584 17.6636C191.474 17.7913 191.394 17.9409 191.336 18.116C191.277 18.2838 191.237 18.4517 191.219 18.6268H193.715Z" fill="#1AABE7"/>
<path d="M196.956 16.5837H198.867V17.3426H196.956V19.6775C196.956 19.9329 196.974 20.1409 197.014 20.3051C197.05 20.4729 197.109 20.6042 197.189 20.6991C197.266 20.7866 197.364 20.8523 197.481 20.8888C197.598 20.9289 197.733 20.9472 197.89 20.9472C198.16 20.9472 198.378 20.918 198.546 20.8596C198.71 20.7939 198.824 20.7429 198.882 20.7137L199.057 21.4725C198.969 21.5127 198.809 21.5674 198.575 21.6331C198.349 21.6987 198.098 21.7352 197.817 21.7352C197.466 21.7352 197.178 21.6914 196.956 21.6039C196.729 21.5163 196.551 21.385 196.416 21.2098C196.288 21.0347 196.197 20.8231 196.138 20.5677C196.08 20.316 196.051 20.0205 196.051 19.6775V15.1828L196.956 15.0222V16.5837Z" fill="#1AABE7"/>
<path d="M201.87 20.9763C202.082 20.9763 202.272 20.9727 202.44 20.9617C202.604 20.9544 202.739 20.9398 202.848 20.918V19.4148C202.79 19.3783 202.688 19.3492 202.542 19.3273C202.396 19.309 202.221 19.2981 202.016 19.2981C201.878 19.2981 201.732 19.309 201.579 19.3273C201.422 19.3492 201.279 19.3856 201.155 19.444C201.028 19.5024 200.922 19.5863 200.834 19.6921C200.754 19.8016 200.718 19.9402 200.718 20.1153C200.718 20.4473 200.82 20.6772 201.024 20.8012C201.236 20.918 201.52 20.9763 201.87 20.9763ZM201.797 16.467C202.155 16.467 202.458 16.518 202.702 16.6129C202.954 16.7005 203.158 16.8318 203.315 17.0069C203.468 17.1747 203.578 17.379 203.636 17.6198C203.702 17.8533 203.738 18.1124 203.738 18.3933V21.5455C203.658 21.5564 203.549 21.5747 203.403 21.6038C203.264 21.6257 203.111 21.6403 202.936 21.6622C202.761 21.6805 202.571 21.6951 202.367 21.706C202.17 21.7242 201.973 21.7352 201.768 21.7352C201.484 21.7352 201.221 21.706 200.98 21.6476C200.736 21.5892 200.528 21.498 200.353 21.3703C200.185 21.2463 200.054 21.0785 199.959 20.8742C199.86 20.6699 199.813 20.4218 199.813 20.1299C199.813 19.849 199.864 19.6118 199.973 19.4148C200.09 19.2105 200.243 19.05 200.44 18.9332C200.634 18.8092 200.856 18.7143 201.112 18.656C201.374 18.5976 201.644 18.5684 201.929 18.5684C202.024 18.5684 202.119 18.5757 202.206 18.583C202.301 18.5939 202.396 18.6085 202.483 18.6268C202.571 18.6377 202.648 18.6523 202.717 18.6706C202.783 18.6815 202.826 18.6925 202.848 18.6998V18.4371C202.848 18.2911 202.834 18.1452 202.804 17.9993C202.775 17.8533 202.717 17.7293 202.629 17.6198C202.542 17.5031 202.425 17.4119 202.279 17.3426C202.14 17.2769 201.958 17.2404 201.724 17.2404C201.422 17.2404 201.159 17.2623 200.936 17.2988C200.71 17.3389 200.546 17.3827 200.44 17.4301L200.338 16.6859C200.444 16.6384 200.634 16.591 200.907 16.5399C201.177 16.4925 201.476 16.467 201.797 16.467Z" fill="#1AABE7"/>
<path d="M206.095 18.7289C206.095 17.9044 205.971 17.1382 205.73 16.4377C205.497 15.7299 205.147 15.0732 204.68 14.4676L205.322 14.0298C205.818 14.6427 206.219 15.3542 206.533 16.1604C206.843 16.9594 207 17.8168 207 18.7289C207 19.6556 206.843 20.5166 206.533 21.3119C206.219 22.1073 205.818 22.815 205.322 23.428L204.68 22.9902C205.147 22.3845 205.497 21.7351 205.73 21.0346C205.971 20.3269 206.095 19.5571 206.095 18.7289Z" fill="#1AABE7"/>
</g>
<defs>
<clipPath id="clip0_1_2">
<rect width="207" height="32" fill="white"/>
</clipPath>
</defs>
</svg>
