<svg width="800" height="600" viewBox="0 0 800 600" fill="none" xmlns="http://www.w3.org/2000/svg">
<path d="M309 173.9L549 337.8L489.6 425.5L249.6 260.3L309 173.9Z" fill="url(#paint0_linear_5_2)"/>
<path d="M549 337.8C528.4 367.5 458.7 355.9 392.9 309.4C325.8 264.2 289.7 203.6 309 173.9C329.6 144.2 399.3 155.8 465.1 202.3C532.2 246.2 568.4 308.1 549 337.8Z" fill="url(#paint1_linear_5_2)"/>
<path d="M489.7 424.3C469.1 454 399.4 442.4 333.6 395.9C267.8 349.4 230.4 290.1 251 259.1C271.6 229.4 341.3 241 407.1 287.5C472.9 333.9 509 394.6 489.7 424.3Z" fill="url(#paint2_linear_5_2)"/>
<path d="M549 337.8L489.6 425.5C469 455.2 399.3 442.3 333.5 397.1C320.6 388.1 309 379 297.4 368.7C306.4 367.4 318 362.2 329.7 349.3C350.3 327.4 360.7 322.2 369.7 323.5C378.7 323.5 389.1 332.5 405.8 354.5C422.6 376.4 445.8 382.9 460 371.3C461.3 370 462.6 370 463.9 368.7C475.5 359.7 479.4 355.8 501.3 314.5C506.5 304.2 524.5 287.4 549 295.1C555.5 312 555.5 326.2 549 337.8Z" fill="#0E0F23"/>
<path fill-rule="evenodd" clip-rule="evenodd" d="M540 332.7C521.9 358.5 458.7 345.6 398.1 303C336.2 260.4 300 206.2 318.1 180.4C336.2 154.6 399.4 167.5 460 210.1C520.6 252.7 556.8 306.8 540 332.7ZM483.2 293.9C474.2 306.8 443.2 300.4 412.2 279.7C382.5 259.1 364.5 232 373.5 219.1C382.5 206.2 413.5 212.6 444.5 233.3C474.2 253.9 492.2 281 483.2 293.9Z" fill="white"/>
<path d="M303.8 203.6C303.8 202.3 302.5 201 301.2 202.3C299.9 203.6 298.6 203.6 298.6 204.9C299.9 208.8 301.2 211.4 301.2 213.9C301.2 215.2 302.5 216.5 303.8 215.2C305.1 215.2 306.4 213.9 305.1 212.6C305.1 210.1 305.1 207.5 303.8 203.6Z" fill="white"/>
<path d="M310.3 224.3C310.3 223 309 221.7 307.7 223C306.4 224.3 306.4 224.3 306.4 225.6C320.6 257.9 350.3 292.7 389 318.5C390.3 319.8 391.6 318.5 392.9 318.5C394.2 317.2 392.9 315.9 392.9 314.6C352.9 288.8 324.5 255.2 310.3 224.3Z" fill="white"/>
<path d="M466.4 350.7C465.1 350.7 463.8 350.7 463.8 352C463.8 353.3 463.8 354.6 465.1 354.6C469 355.9 474.1 357.2 478 358.5C479.3 358.5 480.6 358.5 480.6 357.2C480.6 355.9 480.6 354.6 479.3 354.6C475.5 353.3 470.3 352 466.4 350.7Z" fill="white"/>
<path d="M489.7 355.9C488.4 355.9 487.1 357.2 487.1 358.5C487.1 359.8 488.4 361.1 489.7 361.1C500 362.4 511.6 363.7 520.7 362.4C522 362.4 523.3 361.1 523.3 359.8C523.3 358.5 522 357.2 520.7 357.2C510.3 358.5 500 357.2 489.7 355.9Z" fill="white"/>
<defs>
<linearGradient id="paint0_linear_5_2" x1="356.084" y1="150.617" x2="403.682" y2="314.063" gradientUnits="userSpaceOnUse">
<stop stop-color="#03B8FF"/>
<stop offset="1" stop-color="#FA52A0"/>
</linearGradient>
<linearGradient id="paint1_linear_5_2" x1="395.087" y1="139.26" x2="442.686" y2="302.707" gradientUnits="userSpaceOnUse">
<stop stop-color="#03B8FF"/>
<stop offset="1" stop-color="#FA52A0"/>
</linearGradient>
<linearGradient id="paint2_linear_5_2" x1="317.549" y1="161.84" x2="365.149" y2="325.287" gradientUnits="userSpaceOnUse">
<stop stop-color="#03B8FF"/>
<stop offset="1" stop-color="#FA52A0"/>
</linearGradient>
</defs>
</svg>
