<svg width="24" height="24" viewBox="0 0 24 24" fill="none" xmlns="http://www.w3.org/2000/svg">
<path d="M8.77011 14.43L10.3801 15.15C11.4101 15.61 12.5901 15.61 13.6301 15.15L15.2401 14.43C16.6801 13.79 18.0101 15.53 17.0101 16.75L13.5501 20.98C12.7001 22.02 11.3101 22.02 10.4501 20.98L7.00011 16.75C5.99011 15.53 7.32011 13.79 8.77011 14.43Z" fill="url(#paint0_linear_8_1634)"/>
<path d="M8.57027 11.67C8.27027 11.89 8.31027 12.35 8.65027 12.52L11.0003 13.69C11.5503 13.97 12.4403 13.97 12.9803 13.69L15.3303 12.52C15.6603 12.35 15.7003 11.9 15.4103 11.67L12.3003 9.32998C12.1203 9.19998 11.8803 9.19998 11.7003 9.32998L8.57027 11.67Z" fill="url(#paint1_linear_8_1634)"/>
<path d="M17.8803 8.24002L13.7103 3.04002C13.6303 2.94002 13.5403 2.85002 13.4503 2.76002C13.1903 2.51002 12.8203 2.74002 12.8203 3.10002V7.40002C12.8203 7.56002 12.8903 7.71002 13.0203 7.80002L17.1703 10.92L17.3503 11.05C17.5303 11.18 17.7803 11.18 17.9303 11.02C18.6303 10.26 18.6203 9.16002 17.8803 8.24002Z" fill="url(#paint2_linear_8_1634)"/>
<path d="M6.10986 8.33003L10.2599 3.05003C10.3399 2.95003 10.4199 2.86003 10.5099 2.77003C10.7699 2.52003 11.1399 2.74003 11.1399 3.11003V7.48003C11.1399 7.64003 11.0699 7.78003 10.9399 7.88003L6.80985 11.05L6.63985 11.18C6.45985 11.31 6.20986 11.31 6.04986 11.14C5.36986 10.37 5.37986 9.27003 6.10986 8.33003Z" fill="url(#paint3_linear_8_1634)"/>
<defs>
<linearGradient id="paint0_linear_8_1634" x1="12.4152" y1="14.2928" x2="12.4152" y2="21.76" gradientUnits="userSpaceOnUse">
<stop stop-color="#10B3E8"/>
<stop offset="1" stop-color="#3F80E9"/>
</linearGradient>
<linearGradient id="paint1_linear_8_1634" x1="12.2655" y1="9.23248" x2="12.2655" y2="13.9" gradientUnits="userSpaceOnUse">
<stop stop-color="#10B3E8"/>
<stop offset="1" stop-color="#3F80E9"/>
</linearGradient>
<linearGradient id="paint2_linear_8_1634" x1="15.8497" y1="2.65508" x2="15.8497" y2="11.1441" gradientUnits="userSpaceOnUse">
<stop stop-color="#10B3E8"/>
<stop offset="1" stop-color="#3F80E9"/>
</linearGradient>
<linearGradient id="paint3_linear_8_1634" x1="8.56073" y1="2.66326" x2="8.56072" y2="11.273" gradientUnits="userSpaceOnUse">
<stop stop-color="#10B3E8"/>
<stop offset="1" stop-color="#3F80E9"/>
</linearGradient>
</defs>
</svg>
