<svg width="24" height="24" viewBox="0 0 24 24" fill="none" xmlns="http://www.w3.org/2000/svg">
<path d="M16.19 2.33002H7.81C4.17 2.33002 2 4.51002 2 8.15002V16.52C2 20.16 4.17 22.33 7.81 22.33H16.18C19.82 22.33 21.99 20.16 21.99 16.52V8.15002C22 4.51002 19.83 2.33002 16.19 2.33002ZM11.57 17.12C11.57 17.42 11.42 17.69 11.16 17.85C11.02 17.94 10.87 17.98 10.71 17.98C10.58 17.98 10.45 17.95 10.32 17.89L6.82 16.14C6.32 15.88 6 15.37 6 14.8V11.49C6 11.19 6.15 10.92 6.41 10.76C6.67 10.6 6.98 10.59 7.25 10.72L10.75 12.47C11.26 12.73 11.58 13.24 11.58 13.81V17.12H11.57ZM11.36 11.77L7.6 9.74002C7.33 9.59002 7.16 9.30002 7.16 8.97002C7.16 8.65002 7.33 8.35002 7.6 8.20002L11.36 6.17002C11.76 5.96002 12.23 5.96002 12.63 6.17002L16.39 8.20002C16.66 8.35002 16.83 8.64002 16.83 8.97002C16.83 9.30002 16.66 9.59002 16.39 9.74002L12.63 11.77C12.43 11.88 12.21 11.93 11.99 11.93C11.77 11.93 11.56 11.88 11.36 11.77ZM18 14.8C18 15.37 17.68 15.89 17.17 16.14L13.67 17.89C13.55 17.95 13.42 17.98 13.28 17.98C13.12 17.98 12.97 17.94 12.83 17.85C12.57 17.69 12.42 17.42 12.42 17.12V13.81C12.42 13.24 12.74 12.72 13.25 12.47L16.75 10.72C17.02 10.59 17.33 10.6 17.59 10.76C17.85 10.92 18 11.19 18 11.49V14.8Z" fill="url(#paint0_linear_19_1157)"/>
<defs>
<linearGradient id="paint0_linear_19_1157" x1="12.7655" y1="2.33" x2="12.7654" y2="22.33" gradientUnits="userSpaceOnUse">
<stop stop-color="#10B3E8"/>
<stop offset="1" stop-color="#3F80E9"/>
</linearGradient>
</defs>
</svg>
