<svg width="24" height="24" viewBox="0 0 24 24" fill="none" xmlns="http://www.w3.org/2000/svg">
<path fill-rule="evenodd" clip-rule="evenodd" d="M7 2C4.23858 2 2 4.23858 2 7V17C2 19.7614 4.23858 22 7 22H17C19.7614 22 22 19.7614 22 17V7C22 4.23858 19.7614 2 17 2H7ZM10.0053 12.93H7.81814C7.11741 12.93 6.74227 12.0799 7.20235 11.535L12.5605 5.28645C13.0559 4.70519 13.9902 5.06848 13.9902 5.83865V11.07H16.1774C16.8852 11.07 17.2603 11.9201 16.7932 12.465L11.435 18.7136C10.9396 19.2948 10.0053 18.9315 10.0053 18.1614V12.93Z" fill="url(#paint0_linear_8_1077)"/>
<defs>
<linearGradient id="paint0_linear_8_1077" x1="12.7708" y1="1.99998" x2="12.7708" y2="22" gradientUnits="userSpaceOnUse">
<stop stop-color="#10B3E8"/>
<stop offset="1" stop-color="#3F80E9"/>
</linearGradient>
</defs>
</svg>
